<svg width="450" height="450" viewBox="0 0 450 450" fill="none" xmlns="http://www.w3.org/2000/svg">
<path d="M126 138C126 89.3989 165.399 50 214 50H405C405 98.6011 365.601 138 317 138H126Z" fill="url(#paint0_linear_6_29)"/>
<path d="M45 235C45 186.399 84.3989 147 133 147H335C335 195.601 295.601 235 247 235H45Z" fill="url(#paint1_linear_6_29)"/>
<path d="M126 401C174.601 401 214 361.601 214 313V249C214 246.239 211.761 244 209 244H131C128.239 244 126 246.239 126 249V401Z" fill="url(#paint2_linear_6_29)"/>
<defs>
<linearGradient id="paint0_linear_6_29" x1="265.5" y1="50" x2="265.5" y2="138" gradientUnits="userSpaceOnUse">
<stop stop-color="#0158A9"/>
<stop offset="1" stop-color="#698FBB"/>
</linearGradient>
<linearGradient id="paint1_linear_6_29" x1="190" y1="147" x2="190" y2="235" gradientUnits="userSpaceOnUse">
<stop stop-color="#0158A9"/>
<stop offset="1" stop-color="#698FBB"/>
</linearGradient>
<linearGradient id="paint2_linear_6_29" x1="214" y1="322.5" x2="126" y2="322.5" gradientUnits="userSpaceOnUse">
<stop stop-color="#0158A9"/>
<stop offset="1" stop-color="#698FBB"/>
</linearGradient>
</defs>
</svg>
